
        <svg xmlns="http://www.w3.org/2000/svg" xmlns:xlink="http://www.w3.org/1999/xlink" version="1.1" width="3171.4285714285716" height="2784.1791402227277" viewBox="0 0 3171.4285714285716 2784.1791402227277">
			
			<g transform="scale(8.571428571428571) translate(10, 10)">
				<defs id="SvgjsDefs16323"/><g id="SvgjsG16324" featureKey="DMynUx-0" transform="matrix(2.288828528200282,0,0,2.288828528200282,60.55857795557988,-5.986375189123768)" fill="#fff"><path xmlns="http://www.w3.org/2000/svg" d="M81.3,28.5c-4.9,0-8.4,5.1-8.4,14.9c0,4.1-2.1,7.3-5.5,7.3c-4.1,0-5.6-2.9-5.6-6.2c0-6,5.7-6.7,5.7-16.2  c0-6.9-8.8-12.2-8.8-12.2c2.8,9.9-2.3,15.1-7.5,15.1c-3,0-7.2-2.1-7.2-9.9c0-10.5,8-16.5,8-16.5C32.4,5,28.8,24.2,32.7,33.6  c2.5,5.8,3.1,13.3-2.9,13.3c-7.1,0-3.4-13.2-3.4-13.2c-3.1,1.5-12.1,8.4-13,22.4c-0.1,0.7-0.1,1.4-0.1,2.2c0,0.7,0,1.4,0.1,2.1  c0,0,0,0.1,0,0.1C14.5,79.8,30.5,95,50,95c20.3,0,36.7-16.4,36.7-36.7C86.7,40.2,75.6,37.4,81.3,28.5z M50,90.2  c0,0-16.1-3.4-16.1-18.6c0-13.4,10-22.7,18.7-22.7c0,0-7.3,4.4-7.3,15c0,7.1,3.8,9,6.5,9c4.8,0,9.4-4.8,6.8-13.8  c0,0,7.4,5.2,7.4,13.5C66.1,86.1,50,90.2,50,90.2z"/></g><g id="SvgjsG16325" featureKey="xgcenu-0" transform="matrix(5.006985191394244,0,0,5.006985191394244,-1.8580537483191881,202.33417155630065)" fill="#fff"><path d="M18.544922 18.427734 l1.425781 1.230469 l0 0.341797 l-5.869141 0 l0 -0.341797 l1.435547 -1.230469 l0 -4.267578 c0 -0.761719 0 -2.441406 -2.041016 -2.441406 c-0.634766 0 -1.240234 0.166016 -1.894531 0.498047 c0.048828 0.341797 0.078125 0.722656 0.078125 1.162109 l0 5.048828 l1.425781 1.230469 l0 0.341797 l-5.869141 0 l0 -0.341797 l1.435547 -1.230469 l0 -4.267578 c0 -0.771484 0 -2.441406 -2.050781 -2.441406 c-0.605469 0 -1.181641 0.15625 -1.806641 0.46875 l0 6.240234 l1.425781 1.230469 l0 0.341797 l-5.869141 0 l0 -0.341797 l1.435547 -1.230469 l0 -6.044922 l-1.347656 -0.546875 l0 -0.341797 l3.886719 -1.767578 l0.46875 0 l0 1.357422 l2.666016 -1.357422 c1.826172 0 3.261719 0.019531 3.876953 1.523438 l2.988281 -1.523437 c2.451172 0 4.199219 0.126953 4.199219 3.75 l0 4.951172 z M29.746094 16.748047 l0.664063 0.332031 c-0.722656 2.080078 -2.568359 3.193359 -4.726562 3.193359 c-2.783203 0 -5.048828 -1.875 -5.048828 -5.273437 s2.275391 -5.273437 5.029297 -5.273437 s4.589844 1.875 4.707031 4.560547 l-6.289062 0 l0 0.117188 c0 3.105469 1.191406 4.091797 2.841797 4.091797 c1.25 0 2.011719 -0.566406 2.822266 -1.748047 z M26.63086 10.732422 c-1.455078 -0.019531 -2.167969 0.800781 -2.431641 2.1875 l3.007813 0 l0 -0.185547 c0 -0.771484 -0.195312 -1.552734 -0.576172 -2.001953 z M34.257813 11.855469 c0 2.138672 5.546875 1.113281 5.546875 5.185547 c0 2.34375 -1.845703 3.232422 -4.462891 3.232422 c-0.957031 0 -2.060547 -0.117187 -3.203125 -0.273437 l-0.283203 -3.28125 l0.341797 0 l3.056641 2.636719 c1.103516 -0.009766 2.060547 -0.537109 2.060547 -1.328125 c0 -1.914062 -5.585937 -1.162109 -5.585937 -5.136719 c0 -2.460937 2.128906 -3.164062 4.365234 -3.164062 c1.015625 0 1.982422 0.146484 2.861328 0.341797 l0.507813 3.222656 l-0.341797 0 l-3.066406 -2.763672 c-0.878906 0.009766 -1.796875 0.458984 -1.796875 1.328125 z M36.962891 10.693359 l0.078125 0.039063 c-0.029297 -0.009766 -0.048828 -0.029297 -0.078125 -0.039062 z M45.820313 6.738281 l-2.011719 2.001953 l-2.011719 -2.001953 l2.011719 -2.011719 z M45.322266 18.427734 l1.425781 1.230469 l0 0.341797 l-5.869141 0 l0 -0.341797 l1.435547 -1.230469 l0 -6.044922 l-1.347656 -0.546875 l0 -0.341797 l3.886719 -1.767578 l0.46875 0 l0 8.701172 z M54.248047 18.164063 l0.380859 0.673828 l-2.1875 1.435547 c-2.1875 0 -3.935547 -0.126953 -3.935547 -3.75 l0 -5.15625 l-1.425781 0 l0 -0.341797 l4.091797 -3.769531 l0.341797 0 l0 2.744141 l2.539063 0 l-0.292969 1.367188 l-2.246094 0 l0 4.765625 c0 1.728516 0.771484 2.236328 1.826172 2.236328 c0.253906 0 0.527344 -0.058594 0.908203 -0.205078 z M64.052735 17.792969 l1.181641 0.556641 l0 0.371094 l-3.242187 1.542969 l-0.917969 -1.542969 c-0.673828 0.859375 -1.630859 1.552734 -2.919922 1.552734 c-1.699219 0 -2.851562 -1.240234 -2.851562 -2.783203 c0 -0.429687 0.087891 -0.917969 0.292969 -1.455078 l5.449219 -1.367187 l0 -0.761719 c0 -0.908203 0 -2.695312 -1.542969 -2.695312 c-0.175781 0 -0.371094 0.019531 -0.595703 0.068359 l0 2.177734 l-3.154297 0.722656 c0.214844 -1.933594 0.917969 -2.65625 2.177734 -3.369141 c1.591797 -0.898437 2.792969 -1.083984 3.632813 -1.083984 c2.490234 0 2.490234 1.621094 2.490234 3.720703 l0 4.345703 z M59.736329 18.378906 c0.517578 0 0.996094 -0.253906 1.308594 -0.683594 l0 -2.011719 c-1.669922 0.351563 -2.568359 0.703125 -2.568359 1.542969 c0 0.634766 0.507813 1.152344 1.259766 1.152344 z M68.261719 20.46875 l-2.011719 -2.001953 l2.011719 -2.011719 l2.011719 2.011719 z"/></g>
			</g>
		</svg>
	